<?xml version="1.0" standalone="no"?>
<!DOCTYPE svg PUBLIC "-//W3C//DTD SVG 1.1//EN" "http://www.w3.org/Graphics/SVG/1.1/DTD/svg11.dtd" >
<svg xmlns="http://www.w3.org/2000/svg">
<metadata>
This is a custom SVG webfont generated by Font Squirrel.
Designer    : Markus Schwarz
Foundry     : Markus Schwarz
Foundry URL : conspect.de

The following Font Data is property of Markus Schwarz, ms@conspect.de, http://conspect.de

It is Licensed under the Terms of: http://creativecommons.org/licenses/by-nc-sa/3.0/
You are free to Share and to Remix the Output of this font for NonCommercial Projects. 
Conversion to a Desktop Font is forbidden, if you need .ttf or .otf Fonts, or a commercial license, 
please contact me.


</metadata>
<defs>
<font id="webfontbsqlWnqr" horiz-adv-x="937" >
<font-face units-per-em="1000" ascent="800" descent="-200" />
<missing-glyph horiz-adv-x="500" />
<glyph unicode=" "  horiz-adv-x="500" />
<glyph unicode="&#x09;" horiz-adv-x="500" />
<glyph unicode="&#xa0;" horiz-adv-x="500" />
<glyph unicode="!" d="M696 321h-153v-156h-149v156h-153v131h153v154h149v-154h153v-131z" />
<glyph unicode="&#x22;" horiz-adv-x="936" d="M675 455l-108 -109l111 -110l-106 -106l-110 111l-109 -108l-92 92l108 108l-109 109l106 106l109 -109l108 108z" />
<glyph unicode="$" d="M308 498v-330h287v330h-287zM487 219h-59v177l-47 -19l-9 48l70 27h45v-233zM655 110h-406v486h406v-486z" />
<glyph unicode="%" d="M854 386q0 -80 -30 -150t-82.5 -122.5t-123 -83t-150.5 -30.5t-150 30.5t-122.5 83t-82.5 122.5t-30 150t30 150.5t82.5 123t122.5 82.5t150 30t150.5 -30t123 -82.5t82.5 -123t30 -150.5zM441 360q-11 12 -11 27v198q0 16 11.5 27.5t26.5 11.5q17 0 28 -11.5t11 -27.5 v-182l130 -130q11 -11 11 -27t-11 -28q-11 -10 -27 -10q-17 0 -28 10zM777 386q0 64 -24 120.5t-66 98.5t-98.5 66t-120.5 24t-120 -24t-98 -66t-66 -98.5t-24 -120.5t24 -120.5t66 -98.5t98 -66t120 -24t120.5 24t98.5 66t66 98.5t24 120.5z" />
<glyph unicode="&#x26;" d="M620 446q0 -26 -9.5 -45t-23.5 -35t-29.5 -31.5t-28 -35t-19.5 -45.5q-3 -15 -3 -33q0 -14 2 -30h-80q-4 26 -4 47q0 13 1 25q5 30 16.5 52.5t26.5 38.5l29 30q13 13 22.5 26t9.5 28t-10 29.5t-31 22.5q-16 5 -38 5q-7 0 -15 -1q-32 -2 -76 -21l-37 79q74 27 128 27 q6 0 12 -1q57 -3 92 -24t50 -52t15 -56zM525 87q0 -21 -14.5 -35.5t-36.5 -14.5q-21 0 -35.5 14.5t-14.5 35.5q0 20 14.5 34.5t35.5 14.5q22 0 36.5 -14.5t14.5 -34.5z" />
<glyph unicode="(" d="M682 579q28 -28 41.5 -63t13.5 -71.5t-13.5 -71.5t-41.5 -63q-23 -23 -51 -36.5t-57 -17.5q-13 -1 -25 -1q-17 0 -35 3q-30 5 -57 20l-155 -155q-9 -10 -22.5 -10t-22.5 10l-32 31q-9 10 -9 23t9 22l155 155q-15 27 -20 57q-3 17 -3 33q0 13 2 26q4 30 17.5 58t36.5 51 q28 28 63 42t71.5 14t71.5 -14t63 -42zM679 483h-87v89h-86v-89h-88v-74h88v-90h86v90h87v74z" />
<glyph unicode=")" d="M682 579q28 -28 41.5 -63t13.5 -71.5t-13.5 -71.5t-41.5 -63q-23 -23 -51 -36.5t-57 -17.5q-13 -1 -25 -1q-17 0 -35 3q-30 5 -57 20l-155 -155q-10 -10 -23 -10t-23 10l-31 31q-9 10 -9 23t9 22l155 155q-15 27 -20 57q-3 17 -3 33q0 13 2 26q4 30 17.5 58t36.5 51 q28 28 63 42t71.5 14t71.5 -14t63 -42zM418 483v-74h261v74h-261z" />
<glyph unicode="*" d="M692 402l-219 164l-219 -164h438zM473 173l94 70h-188zM855 386q0 -80 -30.5 -150t-83 -122.5t-122.5 -83t-150 -30.5t-150.5 30.5t-123 83t-82.5 122.5t-30 150t30 150.5t82.5 123t123 82.5t150.5 30t150 -30t122.5 -82.5t83 -123t30.5 -150.5z" />
<glyph unicode="+" d="M566 488l-94 71l-94 -71h188zM254 330l218 -164l219 164h-437zM855 386q0 -80 -30.5 -150t-83 -122.5t-122.5 -83t-150 -30.5t-150.5 30.5t-123 83t-82.5 122.5t-30 150t30 150.5t82.5 123t123 82.5t150.5 30t150 -30t122.5 -82.5t83 -123t30.5 -150.5z" />
<glyph unicode="/" horiz-adv-x="936" d="M470 222q21 0 35 -14t14 -34t-14 -34t-35 -14t-35 14t-14 34t14 34t35 14zM506 283h-69l-35 333h137z" />
<glyph unicode="0" d="M682 579q-28 28 -63 42t-71.5 14t-71.5 -14t-63 -42q-23 -23 -36.5 -51t-17.5 -58q-2 -13 -2 -26q0 -16 3 -33q5 -30 20 -57l-155 -155q-9 -9 -9 -22t9 -23l31 -31q10 -10 23 -10t23 10l155 155q27 -15 57 -20q18 -3 35 -3q12 0 25 1q29 4 57 17.5t51 36.5q28 28 41.5 63 t13.5 71.5t-13.5 71.5t-41.5 63zM679 445q0 -27 -10 -51t-28 -41.5t-41.5 -28t-50.5 -10.5t-51 10.5t-41.5 28t-28 41.5t-10.5 51t10.5 50.5t28 41.5t41.5 28t51 10t50.5 -10t41.5 -28t28 -41.5t10 -50.5zM855 386q0 -80 -30.5 -150t-83 -122.5t-122.5 -83t-150 -30.5 t-150.5 30.5t-123 83t-82.5 122.5t-30 150t30 150.5t82.5 123t123 82.5t150.5 30t150 -30t122.5 -82.5t83 -123t30.5 -150.5z" />
<glyph unicode="1" d="M698 452h-153v154h-149v-154h-153v-131h153v-156h149v156h153v131zM855 386q0 -80 -30.5 -150t-83 -122.5t-122.5 -83t-150 -30.5t-150.5 30.5t-123 83t-82.5 122.5t-30 150t30 150.5t82.5 123t123 82.5t150.5 30t150 -30t122.5 -82.5t83 -123t30.5 -150.5z" />
<glyph unicode="2" horiz-adv-x="936" d="M675 501l-92 92l-108 -108l-109 109l-106 -106l109 -109l-108 -108l92 -92l109 108l110 -111l106 106l-111 110zM855 386q0 -80 -30.5 -150t-83 -122.5t-122.5 -83t-150 -30.5t-150.5 30.5t-123 83t-82.5 122.5t-30 150t30 150.5t82.5 123t123 82.5t150.5 30t150 -30 t122.5 -82.5t83 -123t30.5 -150.5z" />
<glyph unicode="3" d="M683 317v150h-428v-150h428zM855 386q0 -80 -30.5 -150t-83 -122.5t-122.5 -83t-150 -30.5t-150.5 30.5t-123 83t-82.5 122.5t-30 150t30 150.5t82.5 123t123 82.5t150.5 30t150 -30t122.5 -82.5t83 -123t30.5 -150.5z" />
<glyph unicode="4" d="M615 183h-299v337h299v-337zM501 463h-45l-69 -27l9 -48l46 20v-178h59v233zM669 651h-405v-520h405v520zM855 386q0 -80 -30.5 -150t-83 -122.5t-122.5 -83t-150 -30.5t-150.5 30.5t-123 83t-82.5 122.5t-30 150t30 150.5t82.5 123t123 82.5t150.5 30t150 -30 t122.5 -82.5t83 -123t30.5 -150.5z" />
<glyph unicode="5" d="M607 181q13 -13 33 -13t33 13q14 14 14 33.5t-14 33.5l-158 158v221q0 20 -13.5 33.5t-33.5 13.5q-19 0 -32.5 -13.5t-13.5 -33.5v-241q0 -18 13 -33zM855 386q0 -80 -30.5 -150t-83 -122.5t-122.5 -83t-150 -30.5t-150.5 30.5t-123 83t-82.5 122.5t-30 150t30 150.5 t82.5 123t123 82.5t150.5 30t150 -30t122.5 -82.5t83 -123t30.5 -150.5z" />
<glyph unicode="6" d="M620 493q0 25 -15 56t-50 52t-92 25h-12q-54 0 -128 -27l37 -79q44 19 76 22h15q22 0 38 -6q21 -7 31 -21.5t10 -29.5t-9.5 -28t-22.5 -27l-29 -29q-15 -16 -26.5 -38.5t-16.5 -52.5q-1 -12 -1 -25q0 -21 4 -47h80q-2 16 -2 30q0 18 3 33q7 26 19.5 45.5t28 35t29.5 31.5 t23.5 35t9.5 45zM525 134q0 20 -14.5 34.5t-36.5 14.5q-21 0 -35.5 -14.5t-14.5 -34.5q0 -21 14.5 -35.5t35.5 -14.5q22 0 36.5 14.5t14.5 35.5zM855 386q0 -80 -30.5 -150t-83 -122.5t-122.5 -83t-150 -30.5t-150.5 30.5t-123 83t-82.5 122.5t-30 150t30 150.5t82.5 123 t123 82.5t150.5 30t150 -30t122.5 -82.5t83 -123t30.5 -150.5z" />
<glyph unicode="7" horiz-adv-x="936" d="M470 222q-21 0 -35 -14t-14 -34t14 -34t35 -14t35 14t14 34t-14 34t-35 14zM402 616l35 -333h69l33 333h-137zM855 386q0 -80 -30.5 -150t-83 -122.5t-122.5 -83t-150 -30.5t-150.5 30.5t-123 83t-82.5 122.5t-30 150t30 150.5t82.5 123t123 82.5t150.5 30t150 -30 t122.5 -82.5t83 -123t30.5 -150.5z" />
<glyph unicode="8" d="M683 579q-28 28 -63 42t-71.5 14t-71.5 -14t-63 -42q-23 -23 -36.5 -51t-17.5 -58q-2 -13 -2 -26q0 -16 3 -33q5 -30 20 -57l-155 -155q-9 -9 -9 -22t9 -23l32 -31q9 -10 22.5 -10t22.5 10l155 155q27 -15 57 -20q18 -3 35 -3q12 0 24 1q30 4 58 17.5t51 36.5 q28 28 41.5 63t13.5 71.5t-13.5 71.5t-41.5 63zM680 409h-87v-90h-86v90h-88v74h88v89h86v-89h87v-74zM855 386q0 -80 -30.5 -150t-83 -122.5t-122.5 -83t-150 -30.5t-150.5 30.5t-123 83t-82.5 122.5t-30 150t30 150.5t82.5 123t123 82.5t150.5 30t150 -30t122.5 -82.5 t83 -123t30.5 -150.5z" />
<glyph unicode="9" d="M682 579q-28 28 -63 42t-71.5 14t-71.5 -14t-63 -42q-23 -23 -36.5 -51t-17.5 -58q-2 -13 -2 -26q0 -16 3 -33q5 -30 20 -57l-155 -155q-9 -9 -9 -22t9 -23l31 -31q10 -10 23 -10t23 10l155 155q27 -15 57 -20q18 -3 35 -3q12 0 25 1q29 4 57 17.5t51 36.5q28 28 41.5 63 t13.5 71.5t-13.5 71.5t-41.5 63zM679 483v-74h-261v74h261zM855 386q0 -80 -30.5 -150t-83 -122.5t-122.5 -83t-150 -30.5t-150.5 30.5t-123 83t-82.5 122.5t-30 150t30 150.5t82.5 123t123 82.5t150.5 30t150 -30t122.5 -82.5t83 -123t30.5 -150.5z" />
<glyph unicode=":" horiz-adv-x="500" />
<glyph unicode="&#x3c;" d="M345 229l-147 13l214 -215l216 215l-147 -13v16q0 77 11 132t29 93t41.5 60.5t47.5 34.5q36 17 78 17q25 0 52 -6q-74 20 -131 20h-13q-61 -3 -105 -24t-72 -57t-44.5 -80t-23 -93.5t-6.5 -96.5v-16zM855 386q0 -80 -30.5 -150t-83 -122.5t-122.5 -83t-150 -30.5 t-150.5 30.5t-123 83t-82.5 122.5t-30 150t30 150.5t82.5 123t123 82.5t150.5 30t150 -30t122.5 -82.5t83 -123t30.5 -150.5z" />
<glyph unicode="=" d="M682 578q28 -28 41.5 -63t13.5 -71.5t-13.5 -71.5t-41.5 -63q-23 -23 -51 -36.5t-57 -16.5q-13 -2 -25 -2q-17 0 -35 3q-30 5 -57 20l-155 -155q-10 -10 -23 -10t-23 10l-31 31q-9 10 -9 23t9 22l155 155q-15 27 -20 57q-3 17 -3 33q0 13 2 27q4 29 17.5 57t36.5 51 q28 28 63 42t71.5 14t71.5 -14t63 -42zM679 444q0 27 -10 50.5t-28 41.5t-41.5 28t-50.5 10t-51 -10t-41.5 -28t-28 -41.5t-10.5 -50.5t10.5 -51t28 -41.5t41.5 -28t51 -10.5t50.5 10.5t41.5 28t28 41.5t10 51z" />
<glyph unicode="&#x3e;" d="M589 440l146 -13l-212 213l-213 -213l145 13v-16q0 -76 -11 -130.5t-29 -92t-41 -59.5t-47 -34q-35 -17 -77 -17q-24 0 -51 6q73 -21 129 -21h12q61 3 104.5 24t71.5 56.5t44 79.5t22.5 92.5t6.5 95.5v16zM855 386q0 -80 -30.5 -150t-83 -122.5t-122.5 -83t-150 -30.5 t-150.5 30.5t-123 83t-82.5 122.5t-30 150t30 150.5t82.5 123t123 82.5t150.5 30t150 -30t122.5 -82.5t83 -123t30.5 -150.5z" />
<glyph unicode="?" d="M566 437l-94 71l-93 -71h187zM472 167l94 70h-187zM855 386q0 -80 -30.5 -150t-83 -122.5t-122.5 -83t-150 -30.5t-150.5 30.5t-123 83t-82.5 122.5t-30 150t30 150.5t82.5 123t123 82.5t150.5 30t150 -30t122.5 -82.5t83 -123t30.5 -150.5z" />
<glyph unicode="A" d="M739 386l-225 225l15 -154h-337v-142h337l-15 -153zM855 386q0 -80 -30.5 -150t-83 -122.5t-122.5 -83t-150 -30.5t-150.5 30.5t-123 83t-82.5 122.5t-30 150t30 150.5t82.5 123t123 82.5t150.5 30t150 -30t122.5 -82.5t83 -123t30.5 -150.5z" />
<glyph unicode="C" horiz-adv-x="1250" d="M804 707q36 0 68 -14t55.5 -37.5t37.5 -55.5t14 -68v-357q0 -36 -14 -68t-37.5 -56t-55.5 -37.5t-68 -13.5h-358q-36 0 -68 13.5t-55.5 37.5t-37.5 56t-14 68v357q0 36 14 68t37.5 55.5t55.5 37.5t68 14h358zM917 303h-585l293 -220z" />
<glyph unicode="D" d="M470 674l-225 -225l153 15v-337h143v337l153 -15zM855 386q0 -80 -30.5 -150t-83 -122.5t-122.5 -83t-150 -30.5t-150.5 30.5t-123 83t-82.5 122.5t-30 150t30 150.5t82.5 123t123 82.5t150.5 30t150 -30t122.5 -82.5t83 -123t30.5 -150.5z" />
<glyph unicode="E" d="M731 299l-261 262l-262 -262h523zM855 386q0 -80 -30.5 -150t-83 -122.5t-122.5 -83t-150 -30.5t-150.5 30.5t-123 83t-82.5 122.5t-30 150t30 150.5t82.5 123t123 82.5t150.5 30t150 -30t122.5 -82.5t83 -123t30.5 -150.5z" />
<glyph unicode="F" d="M259 597v-318l98 119l238 -238l101 100l-238 239l118 98h-317zM855 386q0 -80 -30.5 -150t-83 -122.5t-122.5 -83t-150 -30.5t-150.5 30.5t-123 83t-82.5 122.5t-30 150t30 150.5t82.5 123t123 82.5t150.5 30t150 -30t122.5 -82.5t83 -123t30.5 -150.5z" />
<glyph unicode="G" d="M181 386l225 -224l-15 153h337v142h-337l15 154zM855 386q0 -80 -30.5 -150t-83 -122.5t-122.5 -83t-150 -30.5t-150.5 30.5t-123 83t-82.5 122.5t-30 150t30 150.5t82.5 123t123 82.5t150.5 30t150 -30t122.5 -82.5t83 -123t30.5 -150.5z" />
<glyph unicode="H" d="M258 176h318l-119 98l238 238l-100 101l-239 -239l-98 119v-317zM855 386q0 -80 -30.5 -150t-83 -122.5t-122.5 -83t-150 -30.5t-150.5 30.5t-123 83t-82.5 122.5t-30 150t30 150.5t82.5 123t123 82.5t150.5 30t150 -30t122.5 -82.5t83 -123t30.5 -150.5z" />
<glyph unicode="I" d="M236 250h370v370zM855 386q0 -80 -30.5 -150t-83 -122.5t-122.5 -83t-150 -30.5t-150.5 30.5t-123 83t-82.5 122.5t-30 150t30 150.5t82.5 123t123 82.5t150.5 30t150 -30t122.5 -82.5t83 -123t30.5 -150.5z" />
<glyph unicode="J" horiz-adv-x="936" d="M469 98l224 225l-153 -14v336h-142v-336l-154 14zM855 386q0 -80 -30.5 -150t-83 -122.5t-122.5 -83t-150 -30.5t-150.5 30.5t-123 83t-82.5 122.5t-30 150t30 150.5t82.5 123t123 82.5t150.5 30t150 -30t122.5 -82.5t83 -123t30.5 -150.5z" />
<glyph unicode="K" d="M680 176v317l-98 -119l-238 239l-101 -101l238 -238l-118 -98h317zM855 386q0 -80 -30.5 -150t-83 -122.5t-122.5 -83t-150 -30.5t-150.5 30.5t-123 83t-82.5 122.5t-30 150t30 150.5t82.5 123t123 82.5t150.5 30t150 -30t122.5 -82.5t83 -123t30.5 -150.5z" />
<glyph unicode="L" d="M540 269v236l153 -15l-224 225l-225 -225l153 15v-28v-209l-153 15l225 -225l224 280l-153 -70v1zM855 386q0 -80 -30.5 -150t-83 -122.5t-122.5 -83t-150 -30.5t-150.5 30.5t-123 83t-82.5 122.5t-30 150t30 150.5t82.5 123t123 82.5t150.5 30t150 -30t122.5 -82.5 t83 -123t30.5 -150.5z" />
<glyph unicode="O" d="M691 444l-218 164l-219 -164h437zM254 327l219 -164l218 164h-437zM855 386q0 -80 -30.5 -150t-83 -122.5t-122.5 -83t-150 -30.5t-150.5 30.5t-123 83t-82.5 122.5t-30 150t30 150.5t82.5 123t123 82.5t150.5 30t150 -30t122.5 -82.5t83 -123t30.5 -150.5z" />
<glyph unicode="P" d="M411 604l-164 -218l164 -219v437zM528 167l164 219l-164 218v-437zM855 386q0 -80 -30.5 -150t-83 -122.5t-122.5 -83t-150 -30.5t-150.5 30.5t-123 83t-82.5 122.5t-30 150t30 150.5t82.5 123t123 82.5t150.5 30t150 -30t122.5 -82.5t83 -123t30.5 -150.5z" />
<glyph unicode="Q" d="M383 123l261 262l-261 261v-523zM855 386q0 -80 -30.5 -150t-83 -122.5t-122.5 -83t-150 -30.5t-150.5 30.5t-123 83t-82.5 122.5t-30 150t30 150.5t82.5 123t123 82.5t150.5 30t150 -30t122.5 -82.5t83 -123t30.5 -150.5z" />
<glyph unicode="R" d="M708 518h-370v-370zM855 386q0 -80 -30.5 -150t-83 -122.5t-122.5 -83t-150 -30.5t-150.5 30.5t-123 83t-82.5 122.5t-30 150t30 150.5t82.5 123t123 82.5t150.5 30t150 -30t122.5 -82.5t83 -123t30.5 -150.5z" />
<glyph unicode="S" horiz-adv-x="936" d="M679 596h-317l119 -98l-239 -239l101 -100l238 238l98 -119v318zM855 386q0 -80 -30.5 -150t-83 -122.5t-122.5 -83t-150 -30.5t-150.5 30.5t-123 83t-82.5 122.5t-30 150t30 150.5t82.5 123t123 82.5t150.5 30t150 -30t122.5 -82.5t83 -123t30.5 -150.5z" />
<glyph unicode="T" d="M555 647l-261 -261l261 -262v523zM855 386q0 -80 -30.5 -150t-83 -122.5t-122.5 -83t-150 -30.5t-150.5 30.5t-123 83t-82.5 122.5t-30 150t30 150.5t82.5 123t123 82.5t150.5 30t150 -30t122.5 -82.5t83 -123t30.5 -150.5z" />
<glyph unicode="U" horiz-adv-x="936" d="M207 472l262 -262l261 262h-523zM855 386q0 -80 -30.5 -150t-83 -122.5t-122.5 -83t-150 -30.5t-150.5 30.5t-123 83t-82.5 122.5t-30 150t30 150.5t82.5 123t123 82.5t150.5 30t150 -30t122.5 -82.5t83 -123t30.5 -150.5z" />
<glyph unicode="V" horiz-adv-x="1250" d="M804 707q36 0 68 -14t55.5 -37.5t37.5 -55.5t14 -68v-357q0 -36 -14 -68t-37.5 -56t-55.5 -37.5t-68 -13.5h-358q-36 0 -68 13.5t-55.5 37.5t-37.5 56t-14 68v357q0 36 14 68t37.5 55.5t55.5 37.5t68 14h358zM917 403l-292 220l-293 -220h585z" />
<glyph unicode="W" horiz-adv-x="936" d="M605 152v370h-370zM855 386q0 -80 -30.5 -150t-83 -122.5t-122.5 -83t-150 -30.5t-150.5 30.5t-123 83t-82.5 122.5t-30 150t30 150.5t82.5 123t123 82.5t150.5 30t150 -30t122.5 -82.5t83 -123t30.5 -150.5z" />
<glyph unicode="X" horiz-adv-x="1250" d="M804 707q36 0 68 -14t55.5 -37.5t37.5 -55.5t14 -68v-357q0 -36 -14 -68t-37.5 -56t-55.5 -37.5t-68 -13.5h-358q-36 0 -68 13.5t-55.5 37.5t-37.5 56t-14 68v357q0 36 14 68t37.5 55.5t55.5 37.5t68 14h358zM625 194l144 108h-288zM481 404h288l-144 108z" />
<glyph unicode="Y" horiz-adv-x="1250" d="M804 707q36 0 68 -14t55.5 -37.5t37.5 -55.5t14 -68v-357q0 -36 -14 -68t-37.5 -56t-55.5 -37.5t-68 -13.5h-358q-36 0 -68 13.5t-55.5 37.5t-37.5 56t-14 68v357q0 36 14 68t37.5 55.5t55.5 37.5t68 14h358zM917 303h-585l293 -220zM917 403l-292 220l-293 -220h585z " />
<glyph unicode="Z" d="M336 624v-370h370zM855 386q0 -80 -30.5 -150t-83 -122.5t-122.5 -83t-150 -30.5t-150.5 30.5t-123 83t-82.5 122.5t-30 150t30 150.5t82.5 123t123 82.5t150.5 30t150 -30t122.5 -82.5t83 -123t30.5 -150.5z" />
<glyph unicode="^" horiz-adv-x="500" />
<glyph unicode="a" d="M514 162l15 153h-337v142h337l-15 154l225 -225z" />
<glyph unicode="b" horiz-adv-x="1250" d="M331 403l292 220l293 -220h-585zM916 303l-293 -220l-292 220h585zM479 252l144 -108l144 108h-288z" />
<glyph unicode="c" horiz-adv-x="1250" d="M804 707q36 0 68 -14t55.5 -37.5t37.5 -55.5t14 -68v-357q0 -36 -14 -68t-37.5 -56t-55.5 -37.5t-68 -13.5h-358q-36 0 -68 13.5t-55.5 37.5t-37.5 56t-14 68v357q0 36 14 68t37.5 55.5t55.5 37.5t68 14h358zM786 638h-322q-25 0 -47.5 -9t-39.5 -27q-19 -18 -27.5 -40.5 t-8.5 -47.5v-321q0 -25 8.5 -48t27.5 -40q17 -18 39.5 -27t47.5 -9h322q24 0 47 9t40 27q18 17 27 40t9 48v321q0 52 -36 88q-17 18 -40 27t-47 9zM835 317l-210 -157l-210 157h420z" />
<glyph unicode="d" d="M470 674l224 -225l-153 15v-337h-143v337l-153 -15z" />
<glyph unicode="e" d="M220 339l249 249l249 -249l-75 -76l-174 174l-174 -174z" />
<glyph unicode="f" d="M259 597h317l-118 -98l238 -239l-101 -100l-238 238l-98 -119v318z" />
<glyph unicode="g" d="M181 386l225 225l-15 -154h337v-142h-337l15 -153z" />
<glyph unicode="h" d="M258 176v317l98 -119l239 239l100 -101l-238 -238l119 -98h-318z" />
<glyph unicode="i" d="M648 163h-352v106h245v246h107v-352z" />
<glyph unicode="j" horiz-adv-x="936" d="M469 98l-225 225l154 -14v336h142v-336l153 14z" />
<glyph unicode="k" d="M680 176h-317l118 98l-238 238l101 101l238 -239l98 119v-317z" />
<glyph unicode="l" d="M540 269v-1l153 15l-224 -225l-225 225l153 -15v209v28l-153 -15l225 225l224 -225l-153 15v-236z" />
<glyph unicode="m" horiz-adv-x="1250" d="M332 403l293 220l292 -220h-585zM332 303l293 -220l292 220h-585z" />
<glyph unicode="n" horiz-adv-x="1250" d="M332 303h585l-292 -220zM769 252h-288l144 -108zM917 403h-585l293 220zM481 454h288l-144 108z" />
<glyph unicode="o" d="M470 599l266 -211h-162l-104 85l-99 -85h-166zM205 289h166l99 -85l104 85h162l-266 -211z" />
<glyph unicode="p" d="M209 339l210 265v-162l-85 -103l85 -100v-166zM518 73v166l85 100l-85 103v162l211 -265z" />
<glyph unicode="q" d="M718 339l-250 -249l-75 75l173 174l-173 173l75 76z" />
<glyph unicode="r" d="M293 515h352v-107h-246v-245h-106v352z" />
<glyph unicode="s" horiz-adv-x="936" d="M679 596v-318l-98 119l-238 -238l-101 100l239 239l-119 98h317z" />
<glyph unicode="t" d="M219 339l250 249l75 -76l-173 -173l173 -174l-75 -75z" />
<glyph unicode="u" d="M468 90l-249 249l76 75l173 -173l174 173l75 -75z" />
<glyph unicode="v" horiz-adv-x="1250" d="M804 707q36 0 68 -14t55.5 -37.5t37.5 -55.5t14 -68v-357q0 -36 -14 -68t-37.5 -56t-55.5 -37.5t-68 -13.5h-358q-36 0 -68 13.5t-55.5 37.5t-37.5 56t-14 68v357q0 36 14 68t37.5 55.5t55.5 37.5t68 14h358zM786 638h-322q-25 0 -47.5 -9t-39.5 -27q-19 -18 -27.5 -40.5 t-8.5 -47.5v-321q0 -25 8.5 -48t27.5 -40q17 -18 39.5 -27t47.5 -9h322q24 0 47 9t40 27q18 17 27 40t9 48v321q0 52 -36 88q-17 18 -40 27t-47 9zM625 547l210 -157h-420z" />
<glyph unicode="w" d="M644 515v-352h-106v245h-246v107h352z" />
<glyph unicode="x" horiz-adv-x="1250" d="M804 707q36 0 68 -14t55.5 -37.5t37.5 -55.5t14 -68v-357q0 -36 -14 -68t-37.5 -56t-55.5 -37.5t-68 -13.5h-358q-36 0 -68 13.5t-55.5 37.5t-37.5 56t-14 68v357q0 36 14 68t37.5 55.5t55.5 37.5t68 14h358zM786 638h-322q-25 0 -47.5 -9t-39.5 -27q-19 -18 -27.5 -40.5 t-8.5 -47.5v-321q0 -25 8.5 -48t27.5 -40q17 -18 39.5 -27t47.5 -9h322q24 0 47 9t40 27q18 17 27 40t9 48v321q0 52 -36 88q-17 18 -40 27t-47 9zM718 300h-186l93 -70zM625 472l-93 -69h186z" />
<glyph unicode="y" horiz-adv-x="1250" d="M804 707q36 0 68 -14t55.5 -37.5t37.5 -55.5t14 -68v-357q0 -36 -14 -68t-37.5 -56t-55.5 -37.5t-68 -13.5h-358q-36 0 -68 13.5t-55.5 37.5t-37.5 56t-14 68v357q0 36 14 68t37.5 55.5t55.5 37.5t68 14h358zM786 638h-322q-25 0 -47.5 -9t-39.5 -27q-19 -18 -27.5 -40.5 t-8.5 -47.5v-321q0 -25 8.5 -48t27.5 -40q17 -18 39.5 -27t47.5 -9h322q24 0 47 9t40 27q18 17 27 40t9 48v321q0 52 -36 88q-17 18 -40 27t-47 9zM835 317l-210 -157l-210 157h420zM625 547l210 -157h-420z" />
<glyph unicode="z" d="M292 163v352h107v-246h246v-106h-353z" />
<glyph unicode="|" horiz-adv-x="500" d="M433 217v-3q-2 -27 -5.5 -56.5t-11.5 -58t-21.5 -54.5t-34.5 -48l-23 -22l-7 46l-33 -47v39l-16 -29l-18 29l-74 -39l17 84l-27 -64h-116v5l-57 -28l25 47q20 39 43 75t42.5 69.5t32 65.5t12.5 63v1q2 23 14.5 37.5t25.5 19.5q11 5 21.5 7.5t15.5 4.5q2 6 5.5 11t5.5 7 q0 3 -0.5 8.5t-0.5 10.5q0 12 5 23q0 2 2 3.5t4 2.5v474q0 16 11.5 27.5t26.5 11.5q17 0 28 -11.5t11 -27.5v-473q3 -2 4 -4l4 -3q4 -7 4.5 -12t0.5 -11q0 -5 -1.5 -10.5t-1.5 -8.5q7 -2 10 -14h2q9 -1 30 -11q17 -8 31.5 -29t14.5 -55q-1 -12 -1 -24v-27v-2zM191 248 q-2 -9 -4 -19q0 -1 1 -1.5t2 -2.5q3 -1 10 -3l14 -3q14 -2 35.5 -3.5t45.5 -1.5q20 0 38 1t33 3q11 1 19.5 3t13.5 4v22q-3 -1 -7 -1t-8 -2q-17 -2 -39 -3.5t-48 -1.5q-22 0 -41 1t-36 3q-8 1 -15 2t-14 3zM295 435h6v466q0 3 -4 3q-2 0 -2 -3v-466zM205 310q-3 -4 -4.5 -8 t-3.5 -12v-5q3 -2 8 -3.5t13 -3.5q14 -2 35 -3.5t44 -1.5q20 0 38.5 1t32.5 3q9 1 18 3l12 3q-2 14 -7.5 21.5t-11.5 14.5q-8 6 -18.5 9.5t-18.5 5.5q-2 0 -4 0.5t-5 3.5q-7 2 -10 15q-1 1 -6.5 7.5t-4.5 16.5q0 5 0.5 11t0.5 10v1h-30v-1q0 -4 1 -10t1 -11q0 -10 -5 -16.5 t-7 -7.5q0 -5 -2.5 -9.5t-4.5 -7.5q-2 -2 -4.5 -3.5t-4.5 -2.5l-11 -4q-4 -1 -9 -2q-19 -4 -32 -14zM350 39q22 29 31.5 68t14.5 81q-2 -2 -5.5 -2t-6.5 -1q-36 -6 -89 -6q-22 0 -42 1.5t-37 3.5q-28 3 -42 11q-17 -37 -40 -73l-44 -72l7 4l-10 -44l61 64l-1 -46h15l58 74 l3 -74h15l29 20l11 -11l1 -2l41 48v-50l16 25z" />
<glyph unicode="&#xa7;" d="M683 317h-428v150h428v-150z" />
<glyph unicode="&#xa8;" horiz-adv-x="936" d="M194 481h566l-283 -283z" />
<glyph unicode="&#xa9;" horiz-adv-x="1424" d="M258 428h-79q0 -8 7 -13t23 -5q21 0 42 8l4 -38q-13 -6 -27 -8t-27 -2q-36 0 -55 17t-19 55q0 16 4.5 30t13 24t22 16t30.5 6q16 0 28 -5.5t20 -14.5t11.5 -21.5t3.5 -27.5q0 -11 -2 -21zM196 480q-8 0 -12.5 -5t-5.5 -14h32q1 10 -3 14.5t-11 4.5zM443 374v86 q0 7 -1.5 10.5t-6.5 3.5q-4 0 -8 -2.5t-7 -7t-5 -10.5t-2 -13v-67h-51v86q0 14 -7 14q-4 0 -8 -2.5t-7 -7t-5 -10.5t-2 -13v-67h-52v140h48v-8q0 -5 -1 -11q7 10 18 16t25 6q13 0 23.5 -4.5t15.5 -17.5q6 10 17 16t25 6q43 0 43 -48v-95h-52zM579 370q-16 0 -30.5 2t-27.5 6 v202h52v-50q0 -7 -1 -15t-2 -13h1q4 7 13.5 11t22.5 4q26 0 39 -17.5t13 -47.5q0 -17 -5 -32t-15 -26t-25 -17.5t-35 -6.5zM591 475q-7 0 -12.5 -8.5t-5.5 -24.5v-30q1 0 3.5 -0.5t6.5 -0.5t8 1.5t7 6t5 11t2 16.5q0 15 -3.5 22t-10.5 7zM755 374v8q0 4 1 9 q-6 -10 -17 -15.5t-24 -5.5q-21 0 -31.5 11.5t-10.5 28.5q0 14 6 24.5t17 17t25 9.5t29 3v3q0 6 -5 8.5t-18 2.5q-9 0 -20 -2.5t-20 -6.5l-4 41q11 4 25 6t27 2q19 0 32 -3.5t20.5 -10t11 -16t3.5 -22.5v-63v-14q0 -8 1 -15h-48zM750 432q-17 0 -23 -4t-6 -10q0 -4 3 -6.5 t8 -2.5q8 0 13 5.5t5 12.5v5zM880 370q-13 0 -22 2t-14 7.5t-7.5 14.5t-2.5 23v58h-17v39h17v40l52 13v-53h26v-39h-26v-48q0 -8 2.5 -11t9.5 -3q3 0 7 0.5t7 1.5v-41q-8 -1 -16 -2.5t-16 -1.5zM962 370q-7 0 -14.5 1t-14.5 1l1 41q6 -2 13.5 -3t15.5 -1q11 0 11 6q0 4 -3 6 t-8 4.5t-11 5t-11 7.5t-8.5 12t-3.5 19q0 9 4 18t12 16t20 11t29 4q12 0 24 -2l-2 -40q-5 1 -11 2t-12 1q-5 0 -7.5 -1.5t-2.5 -4.5t3.5 -5t8.5 -4.5t11 -6t11 -8.5t8.5 -12.5t3.5 -17.5q0 -12 -5 -21t-13.5 -15t-21 -9.5t-27.5 -3.5zM1180 581q25 0 47.5 -9.5t39 -26 t26 -39t9.5 -47.5t-9.5 -47.5t-26 -39t-39 -26t-47.5 -9.5q-26 0 -48 9.5t-38.5 26t-26 39t-9.5 47.5t9.5 47.5t26 39t38.5 26t48 9.5zM1251 480h-47v48h-48v-48h-48v-42h48v-49h48v49h47v42z" />
<glyph unicode="&#xab;" horiz-adv-x="936" d="M357 620l283 -284l-283 -283v567z" />
<glyph unicode="&#xae;" horiz-adv-x="936" d="M398 39v401h401z" />
<glyph unicode="&#xb7;" horiz-adv-x="500" />
<glyph unicode="&#xbb;" horiz-adv-x="500" />
<glyph unicode="&#xc4;" d="M420 625l12 132l-194 -193l194 -193l-12 133h13q70 0 119.5 -10t83 -27t54 -37.5t31.5 -42.5q16 -31 16 -68q0 -23 -6 -47q18 66 18 117v11q-2 54 -21 93.5t-51.5 65t-72.5 40.5t-84 20.5t-87 5.5h-13zM518 143l-12 -133l194 192l-194 195l12 -133h-13q-70 0 -119 10 t-83 26.5t-54 37t-31 42.5q-15 30 -15 67q0 23 6 49q-19 -67 -19 -118v-10q2 -55 21 -94.5t51 -64.5t72 -40t84 -20.5t87 -5.5h13zM855 386q0 -80 -30.5 -150t-83 -122.5t-122.5 -83t-150 -30.5t-150.5 30.5t-123 83t-82.5 122.5t-30 150t30 150.5t82.5 123t123 82.5 t150.5 30t150 -30t122.5 -82.5t83 -123t30.5 -150.5z" />
<glyph unicode="&#xd6;" d="M586 456v1h-236l15 153l-225 -225l225 -224l-15 153h82h155l-15 -153l225 224l-225 225l15 -154h-1zM855 386q0 -80 -30.5 -150t-83 -122.5t-122.5 -83t-150 -30.5t-150.5 30.5t-123 83t-82.5 122.5t-30 150t30 150.5t82.5 123t123 82.5t150.5 30t150 -30t122.5 -82.5 t83 -123t30.5 -150.5z" />
<glyph unicode="&#xdc;" d="M716 415l126 -12l-184 185l-184 -185l126 12v-13q0 -66 -9.5 -113.5t-25.5 -79.5t-35.5 -51.5t-40.5 -29.5q-30 -15 -66 -15q-21 0 -44 5q63 -17 112 -17h10q52 2 89.5 20t62 49t38.5 69t19.5 80t5.5 83v13zM256 321l-126 12l183 -185l185 185l-126 -12v13q0 66 9.5 113 t25 79t35 51.5t40.5 29.5q30 15 65 15q22 0 46 -6q-65 18 -115 18h-8q-52 -2 -89.5 -20t-61.5 -48.5t-38 -68.5t-19.5 -80t-5.5 -83v-13zM855 386q0 -80 -30.5 -150t-83 -122.5t-122.5 -83t-150 -30.5t-150.5 30.5t-123 83t-82.5 122.5t-30 150t30 150.5t82.5 123t123 82.5 t150.5 30t150 -30t122.5 -82.5t83 -123t30.5 -150.5z" />
<glyph unicode="&#xdf;" d="M691 443l-218 164l-219 -164h437zM254 326l219 -164l218 164h-437zM855 386q0 -80 -30.5 -150t-83 -122.5t-122.5 -83t-150 -30.5t-150.5 30.5t-123 83t-82.5 122.5t-30 150t30 150.5t82.5 123t123 82.5t150.5 30t150 -30t122.5 -82.5t83 -123t30.5 -150.5z" />
<glyph unicode="&#xe1;" horiz-adv-x="500" />
<glyph unicode="&#xe4;" d="M574 242l-13 -147l216 215l-216 217l13 -149h-15q-78 0 -133 11t-93 29.5t-60.5 42t-34.5 47.5q-18 36 -18 79q0 25 6 52q-20 -73 -20 -130v-14q3 -61 24 -105.5t57 -73t80.5 -45t94 -23t97.5 -6.5h15zM855 386q0 -80 -30.5 -150t-83 -122.5t-122.5 -83t-150 -30.5 t-150.5 30.5t-123 83t-82.5 122.5t-30 150t30 150.5t82.5 123t123 82.5t150.5 30t150 -30t122.5 -82.5t83 -123t30.5 -150.5z" />
<glyph unicode="&#xe8;" horiz-adv-x="936" d="M798 239h-400v401z" />
<glyph unicode="&#xe9;" d="M424 586v-438l-164 219zM541 148v438l164 -219z" />
<glyph unicode="&#xea;" horiz-adv-x="936" d="M598 640v-401h-401z" />
<glyph unicode="&#xeb;" horiz-adv-x="936" d="M198 440h400v-401z" />
<glyph unicode="&#xee;" horiz-adv-x="500" />
<glyph unicode="&#xf6;" d="M586 456h1l-15 154l225 -225l-225 -224l15 153h-155h-82l15 -153l-225 224l225 225l-15 -153h236v-1z" />
<glyph unicode="&#xf8;" horiz-adv-x="936" d="M687 426h-437l219 163zM250 308h437l-218 -163z" />
<glyph unicode="&#xfc;" d="M353 486l20 154l-218 -216l218 -217l-20 153l22 -5q78 0 133.5 -11.5t93.5 -30t60.5 -42t34.5 -47.5q17 -36 17 -78q0 -25 -6 -52q21 75 21 132q0 6 -1 12q-2 62 -23 106.5t-57.5 73t-81 45t-94 23t-97.5 6.5zM855 386q0 -80 -30.5 -150t-83 -122.5t-122.5 -83 t-150 -30.5t-150.5 30.5t-123 83t-82.5 122.5t-30 150t30 150.5t82.5 123t123 82.5t150.5 30t150 -30t122.5 -82.5t83 -123t30.5 -150.5z" />
<glyph unicode="&#x2000;" horiz-adv-x="470" />
<glyph unicode="&#x2001;" horiz-adv-x="940" />
<glyph unicode="&#x2002;" horiz-adv-x="470" />
<glyph unicode="&#x2003;" horiz-adv-x="940" />
<glyph unicode="&#x2004;" horiz-adv-x="313" />
<glyph unicode="&#x2005;" horiz-adv-x="235" />
<glyph unicode="&#x2006;" horiz-adv-x="156" />
<glyph unicode="&#x2007;" horiz-adv-x="156" />
<glyph unicode="&#x2008;" horiz-adv-x="117" />
<glyph unicode="&#x2009;" horiz-adv-x="188" />
<glyph unicode="&#x200a;" horiz-adv-x="52" />
<glyph unicode="&#x2020;" horiz-adv-x="936" d="M640 56l-283 283l283 284v-567z" />
<glyph unicode="&#x202f;" horiz-adv-x="188" />
<glyph unicode="&#x205f;" horiz-adv-x="235" />
<glyph unicode="&#x20ac;" horiz-adv-x="936" d="M215 198l283 283l283 -283h-566z" />
</font>
</defs>
</svg>
